<svg width="114" height="29" viewBox="0 0 114 29" fill="none" xmlns="http://www.w3.org/2000/svg">
<rect x="0.000610352" y="13" width="32" height="1.54334" rx="0.771672" fill="#E3B873"/>
<rect x="82.0006" y="13" width="32" height="1.54334" rx="0.771672" fill="#E3B873"/>
<path d="M62.4261 8.56018L57.5806 7.10643C57.2169 6.99791 56.843 6.9597 56.4726 6.97323V6.96076H50.5833L40.1396 3.49023L40.1712 18.1652L43.1692 19.6637L44.9443 15.3243L47.5373 16.3617L48.2097 14.6814L49.1835 15.6551L48.275 16.5639C47.9592 16.8796 47.7783 17.3164 47.7783 17.7632C47.7783 18.6775 48.5074 19.421 49.4143 19.4531C49.4459 20.3393 50.1583 21.0517 51.0445 21.0833C51.0761 21.9695 51.7885 22.6819 52.6747 22.7135C52.7073 23.6204 53.4502 24.3495 54.3648 24.3495C54.8114 24.3495 55.2484 24.1685 55.5639 23.8528L56.4726 22.9443L56.8377 23.3094C57.1535 23.6251 57.5902 23.8061 58.037 23.8061C58.9516 23.8061 59.6948 23.077 59.7269 22.1701C60.6131 22.1385 61.3255 21.4261 61.3571 20.5399C62.2433 20.5083 62.9557 19.7959 62.9873 18.9097C63.8942 18.877 64.6236 18.1341 64.6236 17.2198C64.6236 17.1426 64.6111 17.0664 64.6008 16.9897L65.3806 16.2099L66.0107 17.4708L69.424 15.7639L71.4866 19.702L73.8613 18.1195V4.07476L62.4261 8.56018ZM42.6062 18.1673L41.257 17.4925L41.2296 4.99758L47.1842 6.97668L42.6062 18.1673ZM46.9321 14.9488L45.3553 14.3184L48.2179 7.32002L49.7757 7.83795L46.9321 14.9488ZM48.8651 17.7632C48.8651 17.6027 48.9295 17.4458 49.0431 17.332L49.9985 16.3768C50.1121 16.2633 50.2692 16.1985 50.4294 16.1985C50.7654 16.1985 51.0386 16.4721 51.0386 16.8077C51.0386 16.968 50.9739 17.1251 50.8603 17.2386L49.9052 18.1941C49.7916 18.3076 49.6345 18.3721 49.4743 18.3721C49.1383 18.3721 48.8651 18.0988 48.8651 17.7632ZM50.4952 19.3934C50.4952 19.2328 50.5597 19.076 50.6733 18.9622L51.6287 18.007C51.7423 17.8935 51.8994 17.8287 52.0596 17.8287C52.3955 17.8287 52.6688 18.1023 52.6688 18.4379C52.6688 18.5982 52.6041 18.7553 52.4905 18.8688L51.5353 19.8243C51.4218 19.9378 51.2647 20.0023 51.1044 20.0023C50.7685 20.0023 50.4952 19.729 50.4952 19.3934ZM52.1254 21.0236C52.1254 20.863 52.1899 20.7062 52.3035 20.5924L53.2589 19.6372C53.3725 19.5237 53.5296 19.4589 53.6898 19.4589C54.0257 19.4589 54.299 19.7325 54.299 20.0681C54.299 20.2284 54.2343 20.3854 54.1207 20.499L53.1655 21.4545C53.052 21.568 52.8949 21.6325 52.7346 21.6325C52.3987 21.6325 52.1254 21.3592 52.1254 21.0236ZM55.7509 22.1292L54.7957 23.0847C54.6822 23.1982 54.5251 23.2627 54.3648 23.2627C54.0289 23.2627 53.7556 22.9894 53.7556 22.6538C53.7556 22.4932 53.8201 22.3364 53.9337 22.2226L54.8891 21.2674C55.0027 21.1538 55.1598 21.0891 55.32 21.0891C55.6559 21.0891 55.9292 21.3627 55.9292 21.6983C55.9292 21.8586 55.8645 22.0156 55.7509 22.1292ZM62.9276 17.8287C62.7673 17.8287 62.6103 17.7642 62.4967 17.6507L57.9436 13.0973L57.1752 13.8657L61.7283 18.4188C61.8419 18.5326 61.9066 18.6895 61.9066 18.85C61.9066 19.1856 61.6333 19.4589 61.2974 19.4589C61.1371 19.4589 60.9801 19.3944 60.8665 19.2809L56.3134 14.7275L55.545 15.4959L60.0981 20.049C60.2117 20.1628 60.2764 20.3196 60.2764 20.4802C60.2764 20.8158 60.0031 21.0891 59.6672 21.0891C59.5069 21.0891 59.3499 21.0246 59.2363 20.9111L54.6832 16.3577L53.9148 17.1261L58.4679 21.6792C58.5815 21.793 58.6462 21.9498 58.6462 22.1104C58.6462 22.446 58.3729 22.7193 58.037 22.7193C57.8768 22.7193 57.7197 22.6548 57.6061 22.5413L56.9932 21.9281C57.0041 21.8522 57.016 21.776 57.016 21.6983C57.016 20.7837 56.2866 20.0405 55.3797 20.0084C55.3482 19.1222 54.6357 18.4098 53.7495 18.3782C53.718 17.492 53.0055 16.7796 52.1193 16.748C52.0867 15.8411 51.344 15.1117 50.4294 15.1117C50.3522 15.1117 50.2761 15.1242 50.1997 15.1345L48.6483 13.5832L50.863 8.04756H54.074L52.0787 10.0431C51.758 10.3631 51.582 10.7892 51.582 11.2424C51.582 12.1774 52.3427 12.9381 53.278 12.9381C53.7246 12.9381 54.1616 12.7572 54.4771 12.4414L55.9168 11.0015C56.2113 10.708 56.73 10.6966 57.0367 10.9776L58.3071 12.1421C58.7293 12.529 59.1984 12.8508 59.7004 13.1029L63.3585 16.7886C63.4721 16.9024 63.5368 17.0593 63.5368 17.2198C63.5368 17.5554 63.2635 17.8287 62.9276 17.8287ZM64.0802 15.9735L61.8466 13.723C62.0462 13.7418 62.2473 13.7532 62.45 13.7532V12.6664C61.1849 12.6664 59.9742 12.1955 59.0418 11.3406L57.7712 10.1766C57.054 9.51802 55.8374 9.54429 55.1489 10.2336L53.7095 11.6733C53.5954 11.7863 53.4383 11.8513 53.278 11.8513C52.9421 11.8513 52.6688 11.5781 52.6688 11.2424C52.6688 11.0792 52.7317 10.9267 52.8469 10.8112L54.9183 8.74007C55.527 8.1314 56.441 7.89977 57.2681 8.14759L62.0685 9.58754L64.8674 15.1863L64.0802 15.9735ZM66.4966 16.0128L63.2019 9.42303L65.6082 8.47899L68.9196 14.801L66.4966 16.0128ZM72.7746 17.5382L71.8886 18.1288L66.626 8.08019L72.7746 5.6686V17.5382Z" fill="#E3B873"/>
<circle cx="59.6667" cy="0.701412" r="0.485591" fill="#E3B873"/>
<circle cx="47.4099" cy="23.6306" r="0.485591" fill="#E3B873"/>
<circle cx="49.468" cy="25.3191" r="0.485591" fill="#E3B873"/>
<circle cx="51.8166" cy="26.5579" r="0.485591" fill="#E3B873"/>
<circle cx="54.3655" cy="27.3503" r="0.485591" fill="#E3B873"/>
<circle cx="62.2141" cy="1.47436" r="0.485591" fill="#E3B873"/>
<circle cx="64.5632" cy="2.72876" r="0.485591" fill="#E3B873"/>
<path d="M66.8305 2.02686V4.82855H63.9971" stroke="#E3B873" stroke-linecap="round" stroke-linejoin="round"/>
<path d="M45.0104 23.314L45.0104 21.0471L47.2744 21.0471" stroke="#E3B873" stroke-linecap="round" stroke-linejoin="round"/>
<path d="M47.8008 4.00987C49.3359 2.67406 50.3124 2.05949 52.1519 1.34124C54.1033 0.579303 55.4237 0.400379 57.5441 0.400391" stroke="#E3B873" stroke-linecap="round"/>
<path d="M68.4046 21.4984C67.2633 23.2786 65.1376 25.0167 63.4089 25.9712C61.575 26.9837 59.6102 27.5543 56.9931 27.6906" stroke="#E3B873" stroke-linecap="round"/>
</svg>
